<svg width="220" height="52" viewBox="0 0 220 52" fill="none" xmlns="http://www.w3.org/2000/svg">
<rect width="220" height="52" rx="10" fill="#366943"/>
<path d="M81.0431 25.68H83.7031V28.36H81.0431V25.68ZM74.0431 24.12H90.7231V26.06H74.0431V24.12ZM81.0431 16.24H83.6831V18.48H81.0431V16.24ZM80.8831 18.6H83.2231V18.96C83.2231 21.62 80.5231 23.38 75.4031 23.66L74.6631 21.68C79.1831 21.5 80.8831 20.24 80.8831 18.96V18.6ZM81.5031 18.6H83.8431V18.96C83.8431 20.24 85.5431 21.5 90.0431 21.68L89.3031 23.66C84.2031 23.38 81.5031 21.62 81.5031 18.96V18.6ZM75.6031 17.7H89.1431V19.64H75.6031V17.7ZM75.9231 27.18H88.7231V31.76H78.5631V33.52H75.9431V29.98H86.1031V29.1H75.9231V27.18ZM75.9431 32.72H89.2031V34.66H75.9431V32.72ZM101.862 19.7H105.622V21.86H101.862V19.7ZM96.6416 17.22H98.8216V18.96C98.8216 22.62 97.2016 25.8 93.6816 27.02L92.2816 24.92C95.3816 23.9 96.6416 21.46 96.6416 18.96V17.22ZM97.1816 17.22H99.3216V19.12C99.3216 21.42 100.562 23.68 103.462 24.62L102.082 26.7C98.7216 25.54 97.1816 22.54 97.1816 19.12V17.22ZM95.2816 28.12H107.902V34.78H105.242V30.22H95.2816V28.12ZM105.242 16.26H107.902V27.28H105.242V16.26ZM122.68 16.26H125.32V34.78H122.68V16.26ZM124.72 23.48H128V25.7H124.72V23.48ZM110.72 19H121.5V21.12H110.72V19ZM116.14 22.16C118.84 22.16 120.84 24 120.84 26.58C120.84 29.16 118.84 31 116.14 31C113.44 31 111.44 29.16 111.44 26.58C111.44 24 113.44 22.16 116.14 22.16ZM116.14 24.32C114.88 24.32 113.98 25.16 113.98 26.58C113.98 28 114.88 28.84 116.14 28.84C117.4 28.84 118.3 28 118.3 26.58C118.3 25.16 117.4 24.32 116.14 24.32ZM114.8 16.56H117.46V19.8H114.8V16.56ZM141.958 16.26H144.638V34.78H141.958V16.26ZM136.498 18.18H139.138C139.138 23.84 137.218 28.48 130.638 31.66L129.258 29.54C134.578 26.98 136.498 23.62 136.498 18.66V18.18ZM130.238 18.18H137.758V20.28H130.238V18.18Z" fill="white"/>
</svg>
