<svg width="335" height="52" viewBox="0 0 335 52" fill="none" xmlns="http://www.w3.org/2000/svg">
<rect width="335" height="52" rx="10" fill="#366943"/>
<path d="M138.543 25.68H141.203V28.36H138.543V25.68ZM131.543 24.12H148.223V26.06H131.543V24.12ZM138.543 16.24H141.183V18.48H138.543V16.24ZM138.383 18.6H140.723V18.96C140.723 21.62 138.023 23.38 132.903 23.66L132.163 21.68C136.683 21.5 138.383 20.24 138.383 18.96V18.6ZM139.003 18.6H141.343V18.96C141.343 20.24 143.043 21.5 147.543 21.68L146.803 23.66C141.703 23.38 139.003 21.62 139.003 18.96V18.6ZM133.103 17.7H146.643V19.64H133.103V17.7ZM133.423 27.18H146.223V31.76H136.063V33.52H133.443V29.98H143.603V29.1H133.423V27.18ZM133.443 32.72H146.703V34.66H133.443V32.72ZM159.362 19.7H163.122V21.86H159.362V19.7ZM154.142 17.22H156.322V18.96C156.322 22.62 154.702 25.8 151.182 27.02L149.782 24.92C152.882 23.9 154.142 21.46 154.142 18.96V17.22ZM154.682 17.22H156.822V19.12C156.822 21.42 158.062 23.68 160.962 24.62L159.582 26.7C156.222 25.54 154.682 22.54 154.682 19.12V17.22ZM152.782 28.12H165.402V34.78H162.742V30.22H152.782V28.12ZM162.742 16.26H165.402V27.28H162.742V16.26ZM180.18 16.26H182.82V34.78H180.18V16.26ZM182.22 23.48H185.5V25.7H182.22V23.48ZM168.22 19H179V21.12H168.22V19ZM173.64 22.16C176.34 22.16 178.34 24 178.34 26.58C178.34 29.16 176.34 31 173.64 31C170.94 31 168.94 29.16 168.94 26.58C168.94 24 170.94 22.16 173.64 22.16ZM173.64 24.32C172.38 24.32 171.48 25.16 171.48 26.58C171.48 28 172.38 28.84 173.64 28.84C174.9 28.84 175.8 28 175.8 26.58C175.8 25.16 174.9 24.32 173.64 24.32ZM172.3 16.56H174.96V19.8H172.3V16.56ZM199.458 16.26H202.138V34.78H199.458V16.26ZM193.998 18.18H196.638C196.638 23.84 194.718 28.48 188.138 31.66L186.758 29.54C192.078 26.98 193.998 23.62 193.998 18.66V18.18ZM187.738 18.18H195.258V20.28H187.738V18.18Z" fill="white"/>
</svg>
