<svg width="54" height="20" viewBox="0 0 54 20" fill="none" xmlns="http://www.w3.org/2000/svg">
<rect x="0.416667" y="0.416667" width="52.5" height="19.1667" rx="2.91667" fill="#65B749"/>
<rect x="0.416667" y="0.416667" width="52.5" height="19.1667" rx="2.91667" stroke="#B7CCAA" stroke-width="0.833333"/>
<path d="M17.4466 8.09H19.8266V9.15H17.4466V8.09ZM19.4866 5.64H20.8166V12.47H19.4866V5.64ZM14.6866 13.67H21.0166V14.73H14.6866V13.67ZM14.6866 11.8H16.0266V14.28H14.6866V11.8ZM13.4566 6.24H14.7766V7.65H16.5366V6.24H17.8366V11.02H13.4566V6.24ZM14.7766 8.66V9.97H16.5366V8.66H14.7766ZM28.9258 5.63H30.1958V14.89H28.9258V5.63ZM27.7558 9.12H29.2858V10.18H27.7558V9.12ZM24.9958 6.76H26.2658C26.2658 9.37 25.5058 11.48 22.9158 12.99L22.1458 12.07C24.2558 10.82 24.9958 9.26 24.9958 7.04V6.76ZM22.6158 6.76H25.3858V7.83H22.6158V6.76ZM26.8758 5.87H28.1158V14.49H26.8758V5.87ZM31.8151 10.2H32.5751C34.3051 10.2 35.3851 10.17 36.6151 9.97L36.7151 11.03C35.4551 11.23 34.3351 11.26 32.5751 11.26H31.8151V10.2ZM31.8051 6.24H35.9851V9.21H33.1351V10.89H31.8151V8.21H34.6751V7.3H31.8051V6.24ZM37.8851 5.64H39.2151V12.45H37.8851V5.64ZM33.0551 13.67H39.4451V14.73H33.0551V13.67ZM33.0551 11.91H34.3851V14.01H33.0551V11.91ZM36.4351 7.85H38.1451V8.97H36.4351V7.85Z" fill="#F5F5F5"/>
</svg>
