<svg width="24" height="17" viewBox="0 0 24 17" fill="none" xmlns="http://www.w3.org/2000/svg">
<path d="M0 17V14.025C0 13.4229 0.159273 12.8694 0.477818 12.3643C0.795636 11.86 1.21818 11.475 1.74545 11.2094C2.87273 10.6604 4.01818 10.2485 5.18182 9.97369C6.34545 9.69956 7.52727 9.5625 8.72727 9.5625C9.92727 9.5625 11.1091 9.69956 12.2727 9.97369C13.4364 10.2485 14.5818 10.6604 15.7091 11.2094C16.2364 11.475 16.6589 11.86 16.9767 12.3643C17.2953 12.8694 17.4545 13.4229 17.4545 14.025V17H0ZM19.6364 17V13.8125C19.6364 13.0333 19.4138 12.285 18.9687 11.5674C18.5229 10.8506 17.8909 10.2354 17.0727 9.72187C18 9.82812 18.8727 10.0095 19.6909 10.2659C20.5091 10.523 21.2727 10.8375 21.9818 11.2094C22.6364 11.5635 23.1364 11.9574 23.4818 12.3909C23.8273 12.8251 24 13.299 24 13.8125V17H19.6364ZM8.72727 8.5C7.52727 8.5 6.5 8.08385 5.64545 7.25156C4.79091 6.41927 4.36364 5.41875 4.36364 4.25C4.36364 3.08125 4.79091 2.08073 5.64545 1.24844C6.5 0.416146 7.52727 0 8.72727 0C9.92727 0 10.9545 0.416146 11.8091 1.24844C12.6636 2.08073 13.0909 3.08125 13.0909 4.25C13.0909 5.41875 12.6636 6.41927 11.8091 7.25156C10.9545 8.08385 9.92727 8.5 8.72727 8.5ZM15.2727 8.5C15.0727 8.5 14.8182 8.47804 14.5091 8.43412C14.2 8.3895 13.9455 8.34062 13.7455 8.2875C14.2364 7.72083 14.6135 7.09219 14.8767 6.40156C15.1407 5.71094 15.2727 4.99375 15.2727 4.25C15.2727 3.50625 15.1407 2.78906 14.8767 2.09844C14.6135 1.40781 14.2364 0.779167 13.7455 0.2125C14 0.123958 14.2545 0.0662294 14.5091 0.0393127C14.7636 0.0131044 15.0182 0 15.2727 0C16.4727 0 17.5 0.416146 18.3545 1.24844C19.2091 2.08073 19.6364 3.08125 19.6364 4.25C19.6364 5.41875 19.2091 6.41927 18.3545 7.25156C17.5 8.08385 16.4727 8.5 15.2727 8.5ZM2.18182 14.875H15.2727V14.025C15.2727 13.8302 15.2229 13.6531 15.1233 13.4938C15.0229 13.3344 14.8909 13.2104 14.7273 13.1219C13.7455 12.6438 12.7545 12.285 11.7545 12.0456C10.7545 11.8069 9.74545 11.6875 8.72727 11.6875C7.70909 11.6875 6.7 11.8069 5.7 12.0456C4.7 12.285 3.70909 12.6438 2.72727 13.1219C2.56364 13.2104 2.432 13.3344 2.33236 13.4938C2.232 13.6531 2.18182 13.8302 2.18182 14.025V14.875ZM8.72727 6.375C9.32727 6.375 9.84109 6.16675 10.2687 5.75025C10.6956 5.33446 10.9091 4.83437 10.9091 4.25C10.9091 3.66563 10.6956 3.16554 10.2687 2.74975C9.84109 2.33325 9.32727 2.125 8.72727 2.125C8.12727 2.125 7.61382 2.33325 7.18691 2.74975C6.75927 3.16554 6.54545 3.66563 6.54545 4.25C6.54545 4.83437 6.75927 5.33446 7.18691 5.75025C7.61382 6.16675 8.12727 6.375 8.72727 6.375Z" fill="#B7CCAA"/>
</svg>
