<svg width="70" height="35" viewBox="0 0 70 35" fill="none" xmlns="http://www.w3.org/2000/svg">
<g filter="url(#filter0_d_394_3187)">
<rect x="4.5" y="0.5" width="60.1906" height="25.2467" rx="5.25375" fill="black" fill-opacity="0.5" stroke="#C6F059"/>
<path d="M21.5187 15.7313H29.9566V16.8188H21.5187V15.7313ZM25.053 13.6671H26.3921V15.983H25.053V13.6671ZM22.3947 9.2569H29.0302V13.8383H22.3947V9.2569ZM27.7213 10.3242H23.7138V12.7811H27.7213V10.3242ZM33.0369 9.37773H34.1345V9.95166C34.1345 11.6231 33.2685 13.1335 31.4762 13.6772L30.8016 12.63C32.3623 12.1769 33.0369 11.0492 33.0369 9.95166V9.37773ZM33.3088 9.37773H34.4063V9.95166C34.4063 10.9888 35.0809 12.046 36.5913 12.479L35.9368 13.5161C34.1747 13.0026 33.3088 11.5627 33.3088 9.95166V9.37773ZM31.1641 9.07565H36.2389V10.1329H31.1641V9.07565ZM37.1753 8.5722H38.5246V13.6269H37.1753V8.5722ZM32.322 14.0296H33.6411V14.8754H37.1954V14.0296H38.5246V17.7955H32.322V14.0296ZM33.6411 15.9125V16.7281H37.1954V15.9125H33.6411ZM43.5784 13.2543H44.9176V14.8956H43.5784V13.2543ZM40.0341 12.8113H48.4619V13.8685H40.0341V12.8113ZM44.2329 14.5331C46.2467 14.5331 47.4651 15.1372 47.4651 16.2146C47.4651 17.292 46.2467 17.8961 44.2329 17.8961C42.209 17.8961 40.9907 17.292 40.9907 16.2146C40.9907 15.1372 42.209 14.5331 44.2329 14.5331ZM44.2329 15.54C42.9844 15.54 42.35 15.7514 42.35 16.2146C42.35 16.6677 42.9844 16.8892 44.2329 16.8892C45.4815 16.8892 46.1158 16.6677 46.1158 16.2146C46.1158 15.7514 45.4815 15.54 44.2329 15.54ZM43.3267 9.44821H44.5149V9.6798C44.5149 11.0794 43.2562 12.2273 40.8497 12.4488L40.3865 11.4016C42.4306 11.2304 43.3267 10.4048 43.3267 9.6798V9.44821ZM43.9812 9.44821H45.1694V9.6798C45.1694 10.4148 46.0554 11.2304 48.1095 11.4016L47.6463 12.4488C45.2499 12.2273 43.9812 11.0895 43.9812 9.6798V9.44821ZM40.7994 8.95483H47.7068V10.0121H40.7994V8.95483Z" fill="#C6F059"/>
</g>
<defs>
<filter id="filter0_d_394_3187" x="0" y="0" width="69.1906" height="34.2467" filterUnits="userSpaceOnUse" color-interpolation-filters="sRGB">
<feFlood flood-opacity="0" result="BackgroundImageFix"/>
<feColorMatrix in="SourceAlpha" type="matrix" values="0 0 0 0 0 0 0 0 0 0 0 0 0 0 0 0 0 0 127 0" result="hardAlpha"/>
<feOffset dy="4"/>
<feGaussianBlur stdDeviation="2"/>
<feComposite in2="hardAlpha" operator="out"/>
<feColorMatrix type="matrix" values="0 0 0 0 0 0 0 0 0 0 0 0 0 0 0 0 0 0 0.25 0"/>
<feBlend mode="normal" in2="BackgroundImageFix" result="effect1_dropShadow_394_3187"/>
<feBlend mode="normal" in="SourceGraphic" in2="effect1_dropShadow_394_3187" result="shape"/>
</filter>
</defs>
</svg>
