<svg width="70" height="35" viewBox="0 0 70 35" fill="none" xmlns="http://www.w3.org/2000/svg">
<g filter="url(#filter0_d_394_3180)">
<rect x="4.5" y="0.5" width="60.1906" height="25.2467" rx="5.25375" fill="black" fill-opacity="0.5" stroke="#FFD17C"/>
<path d="M15.9104 9.44821H20.371V15.6306H15.9104V9.44821ZM19.052 10.4954H17.2295V14.5734H19.052V10.4954ZM21.5894 8.5722H22.9386V17.8961H21.5894V8.5722ZM22.6365 12.0863H24.2879V13.1939H22.6365V12.0863ZM30.8924 8.5722H32.2316V13.7678H30.8924V8.5722ZM31.859 10.5961H33.4701V11.6936H31.859V10.5961ZM28.214 9.10586H29.6438C29.6438 11.5828 28.0932 13.2644 25.3141 13.9894L24.7905 12.9321C27.0762 12.3582 28.214 11.17 28.214 9.77042V9.10586ZM25.2336 9.10586H29.0195V10.1631H25.2336V9.10586ZM26.1801 14.1404H32.2316V17.7955H26.1801V14.1404ZM30.9125 15.1976H27.4991V16.7382H30.9125V15.1976ZM43.0555 8.58227H44.4047V13.8484H43.0555V8.58227ZM38.2022 14.2713H44.4047V17.7955H38.2022V14.2713ZM43.0857 15.3185H39.5112V16.7382H43.0857V15.3185ZM39.3299 9.00517C40.7799 9.00517 41.8573 9.93152 41.8573 11.2405C41.8573 12.5394 40.7799 13.4758 39.3299 13.4758C37.88 13.4758 36.7925 12.5394 36.7925 11.2405C36.7925 9.93152 37.88 9.00517 39.3299 9.00517ZM39.3299 10.1128C38.6251 10.1128 38.1015 10.5256 38.1015 11.2405C38.1015 11.9453 38.6251 12.3582 39.3299 12.3582C40.0348 12.3582 40.5483 11.9453 40.5483 11.2405C40.5483 10.5256 40.0348 10.1128 39.3299 10.1128ZM51.9155 8.5722H53.2546V14.1605H51.9155V8.5722ZM52.8821 10.8377H54.4931V11.9353H52.8821V10.8377ZM47.032 14.5734H53.2546V17.8961H51.9155V15.6407H47.032V14.5734ZM46.1862 9.15621H47.5153V10.3846H49.3378V9.15621H50.6669V13.6873H46.1862V9.15621ZM47.5153 11.4117V12.6401H49.3378V11.4117H47.5153Z" fill="#FFD17C"/>
</g>
<defs>
<filter id="filter0_d_394_3180" x="0" y="0" width="69.1906" height="34.2467" filterUnits="userSpaceOnUse" color-interpolation-filters="sRGB">
<feFlood flood-opacity="0" result="BackgroundImageFix"/>
<feColorMatrix in="SourceAlpha" type="matrix" values="0 0 0 0 0 0 0 0 0 0 0 0 0 0 0 0 0 0 127 0" result="hardAlpha"/>
<feOffset dy="4"/>
<feGaussianBlur stdDeviation="2"/>
<feComposite in2="hardAlpha" operator="out"/>
<feColorMatrix type="matrix" values="0 0 0 0 0 0 0 0 0 0 0 0 0 0 0 0 0 0 0.25 0"/>
<feBlend mode="normal" in2="BackgroundImageFix" result="effect1_dropShadow_394_3180"/>
<feBlend mode="normal" in="SourceGraphic" in2="effect1_dropShadow_394_3180" result="shape"/>
</filter>
</defs>
</svg>
