<svg width="70" height="35" viewBox="0 0 70 35" fill="none" xmlns="http://www.w3.org/2000/svg">
<g filter="url(#filter0_d_394_3194)">
<rect x="4.5" y="0.5" width="60.1906" height="25.2467" rx="5.25375" fill="black" fill-opacity="0.5" stroke="#989898"/>
<path d="M21.7906 9.44821H26.2512V15.6306H21.7906V9.44821ZM24.9321 10.4954H23.1096V14.5734H24.9321V10.4954ZM27.4695 8.5722H28.8188V17.8961H27.4695V8.5722ZM28.5167 12.0863H30.168V13.1939H28.5167V12.0863ZM36.7725 8.5722H38.1117V13.7678H36.7725V8.5722ZM37.7392 10.5961H39.3502V11.6936H37.7392V10.5961ZM34.0942 9.10586H35.524C35.524 11.5828 33.9733 13.2644 31.1943 13.9894L30.6707 12.9321C32.9564 12.3582 34.0942 11.17 34.0942 9.77042V9.10586ZM31.1137 9.10586H34.8997V10.1631H31.1137V9.10586ZM32.0602 14.1404H38.1117V17.7955H32.0602V14.1404ZM36.7927 15.1976H33.3793V16.7382H36.7927V15.1976ZM42.4406 11.744H43.7899V13.2946H42.4406V11.744ZM46.4985 8.5722H47.8276V14.231H46.4985V8.5722ZM40.2456 14.0196L40.1046 12.9925C41.7761 12.9925 44.0215 12.9824 45.9547 12.7207L46.0353 13.6369C44.0517 13.9894 41.8868 14.0095 40.2456 14.0196ZM41.5244 14.6136H47.8276V17.7955H41.5244V14.6136ZM46.5287 15.6709H42.8333V16.7382H46.5287V15.6709ZM40.8598 11.0794H45.4211V12.1366H40.8598V11.0794ZM40.8598 9.04545H45.3707V10.1128H42.199V11.4419H40.8598V9.04545Z" fill="#989898"/>
</g>
<defs>
<filter id="filter0_d_394_3194" x="0" y="0" width="69.1906" height="34.2467" filterUnits="userSpaceOnUse" color-interpolation-filters="sRGB">
<feFlood flood-opacity="0" result="BackgroundImageFix"/>
<feColorMatrix in="SourceAlpha" type="matrix" values="0 0 0 0 0 0 0 0 0 0 0 0 0 0 0 0 0 0 127 0" result="hardAlpha"/>
<feOffset dy="4"/>
<feGaussianBlur stdDeviation="2"/>
<feComposite in2="hardAlpha" operator="out"/>
<feColorMatrix type="matrix" values="0 0 0 0 0 0 0 0 0 0 0 0 0 0 0 0 0 0 0.25 0"/>
<feBlend mode="normal" in2="BackgroundImageFix" result="effect1_dropShadow_394_3194"/>
<feBlend mode="normal" in="SourceGraphic" in2="effect1_dropShadow_394_3194" result="shape"/>
</filter>
</defs>
</svg>
